<svg xmlns="http://www.w3.org/2000/svg" width="278" height="278" fill="none"><path fill="#EBEBF0" fill-rule="evenodd" d="M89.357 0C40.007 0 0 40.007 0 89.357v99.286C0 237.993 40.007 278 89.357 278h99.286c49.35 0 89.357-40.007 89.357-89.357V89.357C278 40.007 237.993 0 188.643 0H89.357Zm149.896 37.606c-16.01-16.01-49.921-10.08-87.143 12.035a25.797 25.797 0 0 1-26.292.004C88.623 27.563 54.745 21.648 38.746 37.648 22.743 53.653 28.666 87.55 50.762 124.76a25.798 25.798 0 0 1 .006 26.28c-22.055 37.178-27.956 71.036-11.963 87.03s49.85 10.093 87.025-11.965a25.798 25.798 0 0 1 26.282.003c37.199 22.088 71.081 28.005 87.082 12.003 15.996-15.997 10.086-49.869-11.985-87.06a25.796 25.796 0 0 1 .005-26.287c22.117-37.229 28.049-71.145 12.039-87.157Z" clip-rule="evenodd"/></svg>