<svg xmlns="http://www.w3.org/2000/svg" width="80" height="22" fill="none"><path fill="#000" fill-rule="evenodd" d="M7.071 0A7.071 7.071 0 0 0 0 7.071v7.858A7.071 7.071 0 0 0 7.071 22h7.858A7.071 7.071 0 0 0 22 14.929V7.07A7.071 7.071 0 0 0 14.929 0H7.07Zm11.863 2.976c-1.267-1.267-3.95-.798-6.897.952-.64.38-1.44.38-2.08 0-2.944-1.747-5.625-2.215-6.89-.949-1.267 1.267-.799 3.95.95 6.894.38.64.38 1.44 0 2.08-1.745 2.942-2.212 5.621-.946 6.887 1.266 1.266 3.945.799 6.887-.947a2.04 2.04 0 0 1 2.08 0c2.943 1.748 5.625 2.217 6.891.95 1.266-1.266.798-3.946-.948-6.89a2.04 2.04 0 0 1 0-2.08c1.75-2.946 2.22-5.63.953-6.897Z" clip-rule="evenodd"/><path fill="#000" d="M72.827 3.832c1.045 0 2.007.187 2.884.56a6.535 6.535 0 0 1 2.268 1.512 6.98 6.98 0 0 1 1.484 2.324 7.84 7.84 0 0 1 .532 2.912 7.84 7.84 0 0 1-.532 2.912 6.979 6.979 0 0 1-1.484 2.324 6.875 6.875 0 0 1-2.268 1.54c-.877.355-1.839.532-2.884.532s-2.007-.177-2.884-.532a6.877 6.877 0 0 1-2.268-1.54 6.982 6.982 0 0 1-1.484-2.324 7.843 7.843 0 0 1-.532-2.912c0-1.045.177-2.016.532-2.912.355-.896.85-1.67 1.484-2.324a6.536 6.536 0 0 1 2.268-1.512c.877-.373 1.839-.56 2.884-.56Zm0 11.732c.523 0 1.027-.103 1.512-.308a4.02 4.02 0 0 0 1.288-.868c.392-.373.7-.83.924-1.372.224-.56.336-1.185.336-1.876 0-.69-.112-1.307-.336-1.848a3.902 3.902 0 0 0-.924-1.4 4.02 4.02 0 0 0-1.288-.868 3.843 3.843 0 0 0-1.512-.308c-.523 0-1.027.103-1.512.308a4.36 4.36 0 0 0-1.316.868c-.373.373-.672.84-.896 1.4-.224.541-.336 1.157-.336 1.848 0 .69.112 1.316.336 1.876.224.541.523.999.896 1.372.392.373.83.663 1.316.868.485.205.99.308 1.512.308ZM56.517 4.28h2.94v2.072h.168c.168-.355.392-.681.672-.98a4.31 4.31 0 0 1 .98-.784 4.78 4.78 0 0 1 1.148-.504c.41-.13.803-.196 1.176-.196.448 0 .83.037 1.148.112.318.075.607.177.868.308l-.896 2.884a2.56 2.56 0 0 0-.7-.196 4.058 4.058 0 0 0-.896-.084c-.504 0-.97.103-1.4.308-.41.205-.775.485-1.092.84-.317.355-.57.775-.756 1.26a4.675 4.675 0 0 0-.252 1.54V18h-3.108V4.28Zm-6.065 11.872h-.168c-.41.653-.999 1.204-1.764 1.652-.747.43-1.596.644-2.548.644-1.736 0-3.033-.513-3.892-1.54-.859-1.045-1.288-2.427-1.288-4.144V4.28H43.9v8.064c0 1.195.27 2.035.812 2.52.56.467 1.288.7 2.184.7.523 0 .99-.112 1.4-.336.43-.224.793-.523 1.092-.896a4.18 4.18 0 0 0 .672-1.316c.15-.504.224-1.027.224-1.568V4.28h3.108V18h-2.94v-1.848Zm-23.345-.756 7.392-8.4H27.33V4.28h11.004v2.604l-7.392 8.4h7.504V18h-11.34v-2.604Z"/></svg>